<?xml version="1.0" encoding="UTF-8" standalone="no"?>
<svg width="200px" height="200px" viewBox="0 0 200 200" version="1.1" xmlns="http://www.w3.org/2000/svg" xmlns:xlink="http://www.w3.org/1999/xlink">
    <!-- Generator: Sketch 3.7.1 (28215) - http://www.bohemiancoding.com/sketch -->
    <title>inuit-village2@2x</title>
    <desc>Created with Sketch.</desc>
    <defs></defs>
    <g id="Page-1" stroke="none" stroke-width="1" fill="none" fill-rule="evenodd">
        <g id="A4" transform="translate(-138.000000, -287.000000)">
            <g id="inuit-village2" transform="translate(141.000000, 290.000000)">
                <circle id="Oval-4" stroke="#FFFFFF" stroke-width="5" fill="#6EA2C9" cx="97" cy="97" r="97"></circle>
                <path d="M193.325829,85.503481 C187.639747,37.350577 146.681721,0 97,0 C47.3182789,0 6.36025254,37.350577 0.67417089,85.503481 C31.264094,76.7104077 63.5819596,72 97,72 C130.41804,72 162.735906,76.7104077 193.325866,85.5034916 Z" id="Combined-Shape" stroke="#FFFFFF" stroke-width="5" fill="#050505"></path>
                <g id="building" transform="translate(54.000000, 114.000000)" fill="#FFFFFF">
                    <g id="Group">
                        <path d="M39.4098526,0.0501042643 C17.6438279,0.0501042643 0,20.0800641 0,44.7897023 C0,55.1592541 13.8870008,61.156869 29.995686,62.8226873 L29.995686,47.723282 C29.995686,42.0802388 34.2121719,37.504256 39.4069061,37.504256 C44.6016403,37.504256 48.8181262,42.0802388 48.8181262,47.723282 L48.8181262,62.8226873 C64.9268114,61.156869 78.8138122,55.1592541 78.8138122,44.7897023 C78.8197053,20.0800641 61.1758774,0.0501042643 39.4098526,0.0501042643 L39.4098526,0.0501042643 Z" id="Shape"></path>
                    </g>
                </g>
                <g id="building" transform="translate(70.000064, 94.288834) rotate(-4.000000) translate(-70.000064, -94.288834) translate(51.000064, 79.288834)" fill="#FFFFFF">
                    <g id="Group" transform="translate(0.000000, 0.000000)">
                        <path d="M18.956638,0.0238591735 C8.48690454,0.0238591735 -1.13686838e-13,9.5619353 -1.13686838e-13,21.3284297 C-1.13686838e-13,26.2663115 6.67982316,29.1223186 14.4283046,29.9155654 L14.4283046,22.7253724 C14.4283046,20.038209 16.4564877,17.8591695 18.9552207,17.8591695 C21.4539536,17.8591695 23.4821367,20.038209 23.4821367,22.7253724 L23.4821367,29.9155654 C31.2306182,29.1223186 37.9104413,26.2663115 37.9104413,21.3284297 C37.913276,9.5619353 29.4263714,0.0238591735 18.956638,0.0238591735 L18.956638,0.0238591735 Z" id="Shape"></path>
                    </g>
                </g>
                <g id="building" transform="translate(142.162447, 117.879612) rotate(1.000000) translate(-142.162447, -117.879612) translate(117.162447, 97.379612)" fill="#FFFFFF">
                    <g id="Group" transform="translate(24.992194, 20.434037) rotate(-3.000000) translate(-24.992194, -20.434037) translate(1.492194, 1.434037)">
                        <path d="M23.2857828,0.0295611931 C10.4250667,0.0295611931 -2.27373675e-13,11.8471085 -2.27373675e-13,26.4256358 C-2.27373675e-13,32.5436045 8.20530052,36.0821587 17.7233098,37.0649808 L17.7233098,28.1564289 C17.7233098,24.8270698 20.214671,22.1272694 23.2840418,22.1272694 C26.3534127,22.1272694 28.8447738,24.8270698 28.8447738,28.1564289 L28.8447738,37.0649808 C38.3627831,36.0821587 46.5680837,32.5436045 46.5680837,26.4256358 C46.5715657,11.8471085 36.1464989,0.0295611931 23.2857828,0.0295611931 L23.2857828,0.0295611931 Z" id="Shape"></path>
                    </g>
                </g>
                <g id="building" transform="translate(101.000000, 78.000000)" fill="#FFFFFF">
                    <g id="Group">
                        <path d="M10.9748957,0.0143155041 C4.91347105,0.0143155041 0,5.73716118 0,12.7970578 C0,15.7597869 3.86726604,17.4733911 8.353229,17.9493392 L8.353229,13.6352234 C8.353229,12.0229254 9.52744027,10.7155017 10.9740751,10.7155017 C12.42071,10.7155017 13.5949212,12.0229254 13.5949212,13.6352234 L13.5949212,17.9493392 C18.0808842,17.4733911 21.9481502,15.7597869 21.9481502,12.7970578 C21.9497913,5.73716118 17.0363203,0.0143155041 10.9748957,0.0143155041 L10.9748957,0.0143155041 Z" id="Shape"></path>
                        <ellipse id="Oval" cx="12.3427574" cy="15.1357023" rx="0.717983829" ry="0.83625417"></ellipse>
                    </g>
                </g>
                <g id="building" transform="translate(21.000000, 111.000000)" fill="#FFFFFF">
                    <g id="Group">
                        <path d="M16.4623435,0.0214732561 C7.37020657,0.0214732561 0,8.60574177 0,19.1955867 C0,23.6396803 5.80089906,26.2100867 12.5298435,26.9240088 L12.5298435,20.4528351 C12.5298435,18.0343881 14.2911604,16.0732526 16.4611127,16.0732526 C18.6310649,16.0732526 20.3923818,18.0343881 20.3923818,20.4528351 L20.3923818,26.9240088 C27.1213263,26.2100867 32.9222254,23.6396803 32.9222254,19.1955867 C32.924687,8.60574177 25.5544804,0.0214732561 16.4623435,0.0214732561 L16.4623435,0.0214732561 Z" id="Shape"></path>
                        <ellipse id="Oval" cx="18.5141362" cy="22.7035535" rx="1.07697574" ry="1.25438125"></ellipse>
                    </g>
                </g>
                <g id="Group-2" transform="translate(105.000000, 22.000000)" fill="#FFFFFF">
                    <path d="M22.2569785,18.2196908 C22.2405499,18.1771115 22.2153444,18.1371429 22.181002,18.1028004 L13.9001018,9.8219002 C13.7682681,9.69006654 13.5545166,9.69006654 13.422728,9.8219002 C13.2908943,9.95373386 13.2908943,10.1674853 13.422728,10.299274 L20.1144227,16.9909687 C20.0252133,16.9658982 19.9356888,16.9426282 19.8461194,16.9226888 C18.7892446,16.6875577 17.9143894,16.8509432 17.3826888,17.3826438 C16.8509883,17.9143444 16.6876477,18.7891996 16.9227339,19.8460744 C16.9426732,19.9356438 16.9659432,20.0251233 16.9910137,20.1143327 L10.299274,13.422683 C10.1674403,13.2908493 9.95368885,13.2908493 9.8219002,13.422683 C9.69006654,13.5545166 9.69006654,13.7682681 9.8219002,13.9000568 L18.1028004,22.1809569 C18.1371429,22.2152994 18.1771115,22.2404599 18.2196908,22.2569335 C18.7467554,22.7370978 19.4240626,23 20.1418787,23 C20.9052896,23 21.6230607,22.7027104 22.162863,22.162863 C22.7027104,21.6230157 23,20.9053346 23,20.1418787 C23,19.4241076 22.7370528,18.7468004 22.2569785,18.2196908 L22.2569785,18.2196908 Z M21.6854892,21.6854892 C21.2731546,22.0977789 20.7249804,22.3248532 20.1418787,22.3248532 C19.5587769,22.3248532 19.0106027,22.0977789 18.5982681,21.6854442 C18.1492505,21.2364266 17.7502387,20.4569022 17.5817221,19.6994325 C17.4011879,18.8878611 17.5025949,18.2174403 17.8600176,17.8600176 C18.1012701,17.6187652 18.4850685,17.4941781 18.9587515,17.4941781 C19.186771,17.4941781 19.4357202,17.5230744 19.6994325,17.5817221 C20.4569022,17.7502387 21.2364266,18.1492505 21.6854892,18.5982681 C22.0977789,19.0106027 22.3248532,19.5588219 22.3248532,20.1418787 C22.3248532,20.7249354 22.0977789,21.2731546 21.6854892,21.6854892 L21.6854892,21.6854892 Z" id="Shape"></path>
                    <path d="M2.61956947,3.09694325 C2.6854638,3.16283757 2.77188258,3.19582975 2.85825636,3.19582975 C2.94463014,3.19582975 3.03104892,3.16288258 3.09694325,3.09694325 C3.22877691,2.96510959 3.22877691,2.75135812 3.09694325,2.61956947 L0.576260274,0.0988864971 C0.444426614,-0.0329471624 0.230675147,-0.0329471624 0.0988864971,0.0988864971 C-0.0329471624,0.230720157 -0.0329471624,0.444471624 0.0988864971,0.576260274 L2.61956947,3.09694325 L2.61956947,3.09694325 Z" id="Shape"></path>
                    <path d="M16.302409,16.7797828 C16.3683033,16.8456771 16.4547221,16.8786693 16.5410959,16.8786693 C16.6274697,16.8786693 16.7138885,16.8457221 16.7797828,16.7797828 C16.9116164,16.6479491 16.9116164,16.4341977 16.7797828,16.302409 L4.1763229,3.69894912 C4.04448924,3.56711546 3.83073777,3.56711546 3.69894912,3.69894912 C3.56711546,3.83078278 3.56711546,4.04453425 3.69894912,4.1763229 L16.302409,16.7797828 L16.302409,16.7797828 Z" id="Shape"></path>
                    <path d="M8.74144031,7.4184227 C8.80733464,7.48431703 8.89375342,7.5173092 8.9801272,7.5173092 C9.06650098,7.5173092 9.15291977,7.48436204 9.21881409,7.4184227 C9.35064775,7.28658904 9.35064775,7.07283757 9.21881409,6.94104892 L8.49798239,6.22021722 C8.36614873,6.08838356 8.15239726,6.08838356 8.02060861,6.22021722 C7.88877495,6.35205088 7.88877495,6.56580235 8.02060861,6.697591 L8.74144031,7.4184227 L8.74144031,7.4184227 Z" id="Shape"></path>
                    <path d="M9.82045988,8.0201135 C9.68862622,8.15194716 9.68862622,8.36569863 9.82045988,8.49748728 L17.7427221,16.4197045 C17.8086164,16.4855988 17.8950352,16.518591 17.981409,16.518591 C18.0677828,16.518591 18.1542016,16.4856438 18.2200959,16.4197045 C18.3519295,16.2878708 18.3519295,16.0741194 18.2200959,15.9423307 L10.2978787,8.0201135 C10.166045,7.88827984 9.95229354,7.88827984 9.82045988,8.0201135 L9.82045988,8.0201135 Z" id="Shape"></path>
                    <path d="M11.9814697,8.38068689 C11.849636,8.51252055 11.849636,8.72627202 11.9814697,8.85806067 L12.341908,9.21849902 C12.4078023,9.28439335 12.4942211,9.31738552 12.5805949,9.31738552 C12.6669687,9.31738552 12.7533875,9.28443836 12.8192818,9.21849902 C12.9511155,9.08666536 12.9511155,8.87291389 12.8192818,8.74112524 L12.4588434,8.38068689 C12.3270548,8.24885323 12.1133033,8.24885323 11.9814697,8.38068689 L11.9814697,8.38068689 Z" id="Shape"></path>
                    <path d="M8.38068689,11.9814697 C8.24885323,12.1133033 8.24885323,12.3270548 8.38068689,12.4588434 L8.74112524,12.8192818 C8.80701957,12.8851761 8.89343836,12.9181683 8.97981213,12.9181683 C9.06618591,12.9181683 9.1526047,12.8852211 9.21849902,12.8192818 C9.35033268,12.6874481 9.35033268,12.4736967 9.21849902,12.341908 L8.85806067,11.9814697 C8.72627202,11.849636 8.51252055,11.849636 8.38068689,11.9814697 L8.38068689,11.9814697 Z" id="Shape"></path>
                    <path d="M4.06010763,6.33791781 C4.12600196,6.40385714 4.21242074,6.43680431 4.29879452,6.43680431 C4.3851683,6.43680431 4.47158708,6.40385714 4.53748141,6.33791781 C4.66931507,6.20608415 4.66931507,5.99237769 4.53748141,5.86054403 L3.81696477,5.13998239 C3.68513112,5.00810372 3.47137965,5.00814873 3.339591,5.13998239 C3.20775734,5.27181605 3.20775734,5.4855225 3.339591,5.61735616 L4.06010763,6.33791781 L4.06010763,6.33791781 Z" id="Shape"></path>
                    <path d="M16.1810176,18.3189824 C16.2673914,18.3189824 16.3538102,18.2860352 16.4197045,18.2200959 C16.5515382,18.0882622 16.5515382,17.8745108 16.4197045,17.7427221 L5.61735616,6.94037378 C5.4855225,6.80854012 5.27177104,6.80854012 5.13998239,6.94037378 C5.00814873,7.07220744 5.00814873,7.2859589 5.13998239,7.41774755 L15.9423307,18.2200959 C16.008225,18.2860352 16.0946438,18.3189824 16.1810176,18.3189824 L16.1810176,18.3189824 Z" id="Shape"></path>
                </g>
                <g id="Group-3" transform="translate(14.000000, 5.000000)" fill="#FFFFFF">
                    <path d="M84.6280275,46.8575915 L84.1111716,49.9984618 C84.0905728,50.1233612 84.1398484,50.249664 84.2382651,50.3241827 C84.2938685,50.3662836 84.3598387,50.3877551 84.4260781,50.3877551 C84.4769693,50.3877551 84.5279952,50.3751248 84.5747129,50.3494432 L87.2808352,48.8665079 L89.9868228,50.3494432 C90.0335405,50.3751248 90.0845664,50.3877551 90.1354576,50.3877551 C90.201697,50.3877551 90.2676672,50.3662836 90.3232706,50.3241827 C90.4216873,50.249664 90.4709629,50.1233612 90.4503641,49.9984618 L89.9335082,46.8575915 L92.1227746,44.6331183 C92.2098821,44.544566 92.2412516,44.4122287 92.203689,44.2916797 C92.1661264,44.1711307 92.0660941,44.0832801 91.9457323,44.0650363 L88.9202606,43.6068378 L87.5671995,40.7491665 C87.5133463,40.635494 87.4022741,40.5635014 87.2807005,40.5635014 C87.159127,40.5635014 87.0480548,40.635494 86.9942016,40.7491665 L85.6411405,43.6068378 L82.6156688,44.0650363 C82.495307,44.0832801 82.3952747,44.1711307 82.3577121,44.2916797 C82.3201495,44.4122287 82.351519,44.544566 82.4384918,44.6331183 L84.6280275,46.8575915 L84.6280275,46.8575915 Z" id="Shape"></path>
                    <path d="M154.89795,37.6114093 C154.980134,37.5922753 155.044708,37.5261319 155.064555,37.4408545 C155.084402,37.3555771 155.056169,37.2660261 154.991595,37.2096925 L152.763674,35.2666689 L153.036224,32.2521414 C153.044144,32.1648243 153.003704,32.0803239 152.932142,32.0342858 C152.896548,32.011461 152.856294,32 152.816134,32 C152.775321,32 152.734602,32.0117524 152.698727,32.0351599 L150.237391,33.6433871 L147.57106,32.4417331 C147.542826,32.4290095 147.513009,32.4227934 147.483378,32.4227934 C147.43185,32.4227934 147.38088,32.4415389 147.340161,32.477573 C147.27596,32.5343922 147.248379,32.6242346 147.268879,32.7093177 L147.975645,35.6462408 L146.055216,37.9180389 C145.999587,37.983891 145.984586,38.0769385 146.016639,38.1580395 C146.048693,38.2392376 146.122118,38.2944057 146.206073,38.3003304 L149.104142,38.5073078 L150.583553,41.1131253 C150.623527,41.1835423 150.696114,41.2262782 150.773825,41.2262782 C150.779416,41.2262782 150.785007,41.2260839 150.790691,41.2255983 C150.874646,41.2189936 150.947605,41.1632428 150.9791,41.0818505 L152.06343,38.2728435 L154.89795,37.6114093 L154.89795,37.6114093 Z" id="Shape"></path>
                    <path d="M22.7349071,32.5085879 C22.8155855,32.4898045 22.8789757,32.4248731 22.8984593,32.3411582 C22.9179428,32.2574434 22.8902268,32.1695333 22.8268366,32.114232 L20.6397384,30.2068116 L20.9072944,27.2475213 C20.9150695,27.1618042 20.8753706,27.0788521 20.80512,27.0336576 C20.7701777,27.011251 20.7306617,27 20.6912372,27 C20.6511725,27 20.6111991,27.011537 20.5759824,27.0345157 L18.1597466,28.6132743 L15.5422722,27.433639 C15.5145561,27.4211485 15.485285,27.4150463 15.4561969,27.4150463 C15.4056128,27.4150463 15.3555776,27.4334483 15.3156043,27.4688221 C15.25258,27.5246002 15.2255042,27.6127963 15.2456281,27.6963204 L15.9394441,30.5794284 L14.0542039,32.8095989 C13.999595,32.8742443 13.984868,32.9655869 14.0163344,33.0452018 C14.0478008,33.124912 14.1198808,33.1790692 14.2022972,33.1848854 L17.0472628,33.3880703 L18.4995655,35.9461397 C18.538807,36.0152664 18.6100638,36.0572192 18.6863515,36.0572192 C18.6918399,36.0572192 18.6973282,36.0570285 18.702908,36.0565517 C18.7853244,36.0500681 18.856947,35.9953388 18.8878646,35.9154379 L19.9523255,33.1579022 L22.7349071,32.5085879 L22.7349071,32.5085879 Z" id="Shape"></path>
                    <path d="M10.1837829,59.1126533 C10.2060808,59.0168464 10.1743613,58.9162383 10.1018149,58.852949 L7.59880482,56.6700144 L7.90500743,53.2832741 C7.91390562,53.1851757 7.86847249,53.0902418 7.78807467,53.0385192 C7.74808514,53.0128761 7.70286137,53 7.65774228,53 C7.6118904,53 7.56614321,53.0132035 7.52583962,53.0395012 L4.76059452,54.8463011 L1.76504318,53.4962753 C1.73332373,53.4819806 1.69982465,53.474997 1.66653493,53.474997 C1.60864431,53.474997 1.55138181,53.496057 1.50563461,53.5365403 C1.43350689,53.6003752 1.40252023,53.7013107 1.42555086,53.7968993 L2.21958395,57.0964532 L0.0620332554,59.6487571 C-0.000463482261,59.7227401 -0.0173177113,59.8272765 0.0186938092,59.9183913 C0.0547053297,60.0096151 0.137196836,60.071595 0.231517708,60.0782513 L3.48741977,60.3107848 L5.149498,63.2383505 C5.19440772,63.3174621 5.27595706,63.3654747 5.36326406,63.3654747 C5.47653286,63.3572907 5.55850094,63.2946561 5.59388435,63.2032141 L6.81209966,60.0473705 L9.99660679,59.304267 C10.0889387,59.2827705 10.1614851,59.2084602 10.1837829,59.1126533 Z" id="Shape"></path>
                    <path d="M118.997351,18.3463858 C119.067153,18.3301346 119.121997,18.2739566 119.138854,18.2015274 C119.155711,18.1290982 119.131732,18.0530393 119.076887,18.0051931 L117.184633,16.3549129 L117.416119,13.7945658 C117.422846,13.7204042 117.388499,13.648635 117.327719,13.6095331 C117.297487,13.5901471 117.263298,13.5804129 117.229189,13.5804129 C117.194525,13.5804129 117.159941,13.5903946 117.129471,13.6102755 L115.038969,14.976201 L112.774358,13.9555928 C112.750378,13.9447862 112.725053,13.9395066 112.699886,13.9395066 C112.656122,13.9395066 112.612832,13.9554279 112.578247,13.9860329 C112.523719,14.0342915 112.500293,14.1105979 112.517704,14.1828621 L113.117987,16.6772971 L111.486897,18.6068174 C111.43965,18.6627479 111.426908,18.7417766 111.454132,18.8106585 C111.481357,18.879623 111.54372,18.9264792 111.615025,18.9315113 L114.07646,19.1073047 L115.332977,21.3205198 C115.366929,21.3803275 115.428579,21.4166246 115.494583,21.4166246 C115.499331,21.4166246 115.504079,21.4164596 115.508907,21.4160471 C115.580213,21.4104376 115.64218,21.3630864 115.66893,21.2939569 L116.58989,18.9081657 L118.997351,18.3463858 L118.997351,18.3463858 Z" id="Shape"></path>
                    <path d="M57.1555997,15.4030372 C57.1426207,15.3100003 57.0800218,15.2327818 56.9942605,15.2037468 L55.5346197,14.7099435 L55.0974263,13.1766036 C55.0717678,13.0864806 54.9991851,13.0193567 54.9103287,13.0035383 C54.8969504,13.0011447 54.883572,13 54.8702934,13 C54.7952148,13 54.7236305,13.0372564 54.6786033,13.1018827 L53.7769606,14.3963862 L52.2428402,14.3560078 C52.2408435,14.3560078 52.2388467,14.3559037 52.2368499,14.3559037 C52.1489919,14.3559037 52.0681226,14.4066889 52.0271888,14.4879661 C51.9852566,14.5712207 51.9922453,14.6720627 52.0452596,14.7480324 L52.947701,16.0419115 L52.4367268,17.5503791 C52.4066754,17.6390451 52.4275417,17.7377017 52.4905399,17.8050338 C52.5358666,17.8534255 52.5972674,17.8795466 52.6601657,17.8795466 C52.6846262,17.8795466 52.7093861,17.875592 52.7334473,17.8674747 L54.1928883,17.3726307 L55.411319,18.3452515 C55.4534509,18.3788655 55.5042687,18.3961408 55.5553861,18.3961408 C55.5911284,18.3961408 55.6269704,18.3877113 55.6603165,18.3706441 C55.7411858,18.3290168 55.792403,18.2431606 55.7923032,18.149083 L55.791804,16.5494518 L57.055761,15.6421858 C57.1298413,15.5887988 57.1685787,15.4960741 57.1555997,15.4030372 L57.1555997,15.4030372 Z" id="Shape"></path>
                    <path d="M152.435062,64.9452294 C152.419265,64.8319909 152.343074,64.7380055 152.23869,64.702666 L150.46211,64.1016406 L149.929987,62.2353586 C149.898757,62.1256668 149.810414,62.0439679 149.702264,62.0247148 C149.68598,62.0218015 149.669697,62.0204082 149.653535,62.0204082 C149.562154,62.0204082 149.475027,62.0657542 149.420222,62.1444132 L148.322801,63.719999 L146.455569,63.670853 C146.453139,63.670853 146.450709,63.6707263 146.448278,63.6707263 C146.341343,63.6707263 146.242914,63.7325388 146.193092,63.8314642 C146.142055,63.9327962 146.150561,64.0555345 146.215087,64.148 L147.31348,65.7228258 L146.691556,67.5588348 C146.654979,67.6667534 146.680376,67.7868318 146.757053,67.868784 C146.812222,67.9276833 146.886955,67.9594762 146.963511,67.9594762 C146.993283,67.9594762 147.023419,67.9546629 147.052704,67.944783 L148.829042,67.342491 L150.312036,68.526302 C150.363317,68.5672148 150.425169,68.5882412 150.487386,68.5882412 C150.530889,68.5882412 150.574513,68.5779813 150.6151,68.5572083 C150.713529,68.5065423 150.775867,68.4020436 150.775746,68.2875385 L150.775138,66.3405709 L152.313545,65.2363056 C152.403711,65.1713264 152.450859,65.0584679 152.435062,64.9452294 L152.435062,64.9452294 Z" id="Shape"></path>
                    <path d="M113.477785,56.9284143 L112.227544,56.5054518 L111.853071,55.1920844 C111.831093,55.1148905 111.768923,55.0573961 111.692814,55.043847 C111.681355,55.0417969 111.669896,55.0408163 111.658522,55.0408163 C111.594214,55.0408163 111.532899,55.0727279 111.494332,55.128083 L110.722038,56.2368774 L109.408002,56.2022916 C109.327618,56.2022025 109.25835,56.2457021 109.223288,56.3153193 C109.187372,56.3866302 109.193358,56.4730054 109.238767,56.5380765 L110.011744,57.6463361 L109.574074,58.9383994 C109.548334,59.0143455 109.566207,59.0988488 109.620167,59.1565214 C109.658991,59.1979709 109.711584,59.2203446 109.765459,59.2203446 C109.78641,59.2203446 109.807618,59.2169574 109.828227,59.2100046 L111.078297,58.7861508 L112.121932,59.6192397 C112.15802,59.6480314 112.201547,59.6628284 112.245332,59.6628284 C112.275946,59.6628284 112.306646,59.6556082 112.335209,59.6409895 C112.404476,59.605334 112.448346,59.5317947 112.448261,59.4512135 L112.447833,58.0810648 L113.530463,57.303955 C113.593916,57.2582269 113.627096,57.1788044 113.615979,57.0991146 C113.604862,57.0194247 113.551243,56.9532839 113.477785,56.9284143 Z" id="Shape"></path>
                    <path d="M104.075861,13.8875979 L102.82562,13.4646355 L102.451147,12.1512681 C102.429169,12.0740741 102.366999,12.0165798 102.29089,12.0030307 C102.279431,12.0009805 102.267972,12 102.256598,12 C102.19229,12 102.130975,12.0319116 102.092408,12.0872666 L101.320114,13.1960611 L100.006078,13.1614753 C99.9256936,13.1613862 99.8564258,13.2048858 99.8213643,13.274503 C99.7854477,13.3458138 99.7914338,13.4321891 99.8368427,13.4972602 L100.60982,14.6055198 L100.17215,15.8975831 C100.14641,15.9735291 100.164283,16.0580325 100.218243,16.1157051 C100.257067,16.1571545 100.30966,16.1795283 100.363535,16.1795283 C100.384486,16.1795283 100.405694,16.1761411 100.426303,16.1691882 L101.676373,15.7453344 L102.720008,16.5784233 C102.756096,16.6072151 102.799623,16.6220121 102.843408,16.6220121 C102.874022,16.6220121 102.904722,16.6147919 102.933285,16.6001731 C103.002552,16.5645177 103.046422,16.4909784 103.046337,16.4103972 L103.045909,15.0402485 L104.128539,14.2631386 C104.191992,14.2174106 104.225172,14.1379881 104.214055,14.0582983 C104.202938,13.9786084 104.149319,13.9124676 104.075861,13.8875979 Z" id="Shape"></path>
                    <path d="M129.157785,49.9488224 L127.907544,49.52586 L127.533071,48.2124926 C127.511093,48.1352986 127.448923,48.0778043 127.372814,48.0642552 C127.361355,48.062205 127.349896,48.0612245 127.338522,48.0612245 C127.274214,48.0612245 127.212899,48.0931361 127.174332,48.1484911 L126.402038,49.2572855 L125.088002,49.2226998 C125.007618,49.2226107 124.93835,49.2661103 124.903288,49.3357275 C124.867372,49.4070383 124.873358,49.4934136 124.918767,49.5584847 L125.691744,50.6667443 L125.254074,51.9588076 C125.228334,52.0347536 125.246207,52.119257 125.300167,52.1769296 C125.338991,52.218379 125.391584,52.2407528 125.445459,52.2407528 C125.46641,52.2407528 125.487618,52.2373655 125.508227,52.2304127 L126.758297,51.8065589 L127.801932,52.6396478 C127.83802,52.6684396 127.881547,52.6832366 127.925332,52.6832366 C127.955946,52.6832366 127.986646,52.6760163 128.015209,52.6613976 C128.084476,52.6257422 128.128346,52.5522029 128.128261,52.4716217 L128.127833,51.101473 L129.210463,50.3243631 C129.273916,50.2786351 129.307096,50.1992126 129.295979,50.1195227 C129.284862,50.0398329 129.231243,49.9736921 129.157785,49.9488224 Z" id="Shape"></path>
                    <path d="M32.8377854,23.1937204 L31.5875442,22.770758 L31.2130705,21.4573906 C31.1910929,21.3801966 31.1289229,21.3227022 31.0528139,21.3091532 C31.0413548,21.307103 31.0298956,21.3061224 31.018522,21.3061224 C30.9542141,21.3061224 30.8928993,21.338034 30.8543317,21.3933891 L30.0820384,22.5021835 L28.7680024,22.4675978 C28.6876176,22.4675086 28.6183498,22.5110082 28.5832883,22.5806254 C28.5473717,22.6519363 28.5533578,22.7383115 28.5987667,22.8033827 L29.3717441,23.9116423 L28.9340742,25.2037055 C28.9083339,25.2796516 28.9262067,25.3641549 28.9801672,25.4218276 C29.0189914,25.463277 29.0715836,25.4856508 29.1254585,25.4856508 C29.1464099,25.4856508 29.1676178,25.4822635 29.1882271,25.4753107 L30.4382973,25.0514569 L31.4819322,25.8845458 C31.5180199,25.9133375 31.5615474,25.9281345 31.6053315,25.9281345 C31.6359462,25.9281345 31.6666464,25.9209143 31.6952086,25.9062956 C31.7644765,25.8706402 31.8083461,25.7971009 31.8082605,25.7165196 L31.807833,24.346371 L32.8904631,23.5692611 C32.9539159,23.523533 32.987096,23.4441106 32.9759789,23.3644207 C32.9648619,23.2847308 32.9112435,23.21859 32.8377854,23.1937204 Z" id="Shape"></path>
                    <path d="M66.4377854,33.6631081 L65.1875442,33.2401457 L64.8130705,31.9267783 C64.7910929,31.8495843 64.7289229,31.79209 64.6528139,31.7785409 C64.6413548,31.7764907 64.6298956,31.7755102 64.618522,31.7755102 C64.5542141,31.7755102 64.4928993,31.8074218 64.4543317,31.8627768 L63.6820384,32.9715713 L62.3680024,32.9369855 C62.2876176,32.9368964 62.2183498,32.980396 62.1832883,33.0500132 C62.1473717,33.121324 62.1533578,33.2076993 62.1987667,33.2727704 L62.9717441,34.38103 L62.5340742,35.6730933 C62.5083339,35.7490393 62.5262067,35.8335427 62.5801672,35.8912153 C62.6189914,35.9326647 62.6715836,35.9550385 62.7254585,35.9550385 C62.7464099,35.9550385 62.7676178,35.9516513 62.7882271,35.9446985 L64.0382973,35.5208446 L65.0819322,36.3539335 C65.1180199,36.3827253 65.1615474,36.3975223 65.2053315,36.3975223 C65.2359462,36.3975223 65.2666464,36.3903021 65.2952086,36.3756833 C65.3644765,36.3400279 65.4083461,36.2664886 65.4082605,36.1859074 L65.407833,34.8157587 L66.4904631,34.0386488 C66.5539159,33.9929208 66.587096,33.9134983 66.5759789,33.8338085 C66.5648619,33.7541186 66.5112435,33.6879778 66.4377854,33.6631081 Z" id="Shape"></path>
                    <path d="M74.2777854,35.9896387 L73.0275442,35.5666763 L72.6530705,34.2533089 C72.6310929,34.176115 72.5689229,34.1186206 72.4928139,34.1050715 C72.4813548,34.1030213 72.4698956,34.1020408 72.458522,34.1020408 C72.3942141,34.1020408 72.3328993,34.1339524 72.2943317,34.1893075 L71.5220384,35.2981019 L70.2080024,35.2635161 C70.1276176,35.263427 70.0583498,35.3069266 70.0232883,35.3765438 C69.9873717,35.4478546 69.9933578,35.5342299 70.0387667,35.599301 L70.8117441,36.7075606 L70.3740742,37.9996239 C70.3483339,38.0755699 70.3662067,38.1600733 70.4201672,38.2177459 C70.4589914,38.2591954 70.5115836,38.2815691 70.5654585,38.2815691 C70.5864099,38.2815691 70.6076178,38.2781819 70.6282271,38.2712291 L71.8782973,37.8473753 L72.9219322,38.6804641 C72.9580199,38.7092559 73.0015474,38.7240529 73.0453315,38.7240529 C73.0759462,38.7240529 73.1066464,38.7168327 73.1352086,38.702214 C73.2044765,38.6665585 73.2483461,38.5930192 73.2482605,38.512438 L73.247833,37.1422893 L74.3304631,36.3651795 C74.3939159,36.3194514 74.427096,36.2400289 74.4159789,36.1603391 C74.4048619,36.0806492 74.3512435,36.0145084 74.2777854,35.9896387 Z" id="Shape"></path>
                    <path d="M74.2777854,4.88759793 L73.0275442,4.46463551 L72.6530705,3.15126812 C72.6310929,3.07407413 72.5689229,3.01657977 72.4928139,3.00303071 C72.4813548,3.00098052 72.4698956,3 72.458522,3 C72.3942141,3 72.3328993,3.0319116 72.2943317,3.08726664 L71.5220384,4.19606106 L70.2080024,4.1614753 C70.1276176,4.16138616 70.0583498,4.20488578 70.0232883,4.27450298 C69.9873717,4.34581382 69.9933578,4.43218908 70.0387667,4.49726022 L70.8117441,5.60551981 L70.3740742,6.89758309 C70.3483339,6.97352913 70.3662067,7.05803248 70.4201672,7.11570512 C70.4589914,7.15715454 70.5115836,7.17952832 70.5654585,7.17952832 C70.5864099,7.17952832 70.6076178,7.17614105 70.6282271,7.16918825 L71.8782973,6.74533444 L72.9219322,7.57842333 C72.9580199,7.60721508 73.0015474,7.62201208 73.0453315,7.62201208 C73.0759462,7.62201208 73.1066464,7.61479186 73.1352086,7.60017314 C73.2044765,7.56451772 73.2483461,7.49097841 73.2482605,7.41039716 L73.247833,6.04024852 L74.3304631,5.26313864 C74.3939159,5.21741056 74.427096,5.13798812 74.4159789,5.05829825 C74.4048619,4.97860839 74.3512435,4.91246758 74.2777854,4.88759793 Z" id="Shape"></path>
                    <path d="M69.9973115,54.1599406 C69.9832205,54.0589326 69.9152585,53.9750983 69.8221494,53.9435757 L68.2374522,53.4074652 L67.7628018,51.7427547 C67.734945,51.6449104 67.6561437,51.5720355 67.5596744,51.5548619 C67.5451499,51.5522632 67.5306253,51.5510204 67.5162091,51.5510204 C67.434698,51.5510204 67.3569806,51.5914688 67.3080956,51.661632 L66.3292037,53.0670436 L64.6636458,53.0232057 C64.661478,53.0232057 64.6593101,53.0230927 64.6571423,53.0230927 C64.561757,53.0230927 64.4739591,53.078229 64.4295182,53.1664697 C64.3839934,53.2568572 64.3915809,53.3663389 64.4491372,53.4488175 L65.4288963,54.8535511 L64.8741439,56.4912584 C64.8415178,56.587521 64.8641718,56.6946301 64.9325674,56.7677309 C64.9817776,56.8202686 65.0484389,56.8486276 65.1167261,56.8486276 C65.1432823,56.8486276 65.1701636,56.8443342 65.1962862,56.8355215 L66.7807665,56.2982812 L68.1035876,57.3542323 C68.1493292,57.3907263 68.2045009,57.4094816 68.2599979,57.4094816 C68.2988023,57.4094816 68.3377152,57.4003299 68.3739183,57.3818005 C68.4617161,57.3366068 68.5173215,57.2433947 68.5172131,57.141257 L68.5166711,55.4045755 L69.8889191,54.4195785 C69.9693463,54.3616175 70.0114025,54.2609485 69.9973115,54.1599406 L69.9973115,54.1599406 Z" id="Shape"></path>
                    <path d="M48.668466,41.8632899 C48.6516784,41.7429521 48.5707105,41.6430744 48.4597832,41.6055193 L46.5718234,40.9668137 L46.0063394,38.9835285 C45.9731516,38.8669597 45.8792702,38.7801388 45.7643397,38.7596786 C45.7470355,38.7565827 45.7297314,38.755102 45.7125564,38.755102 C45.6154465,38.755102 45.5228564,38.803291 45.4646164,38.8868813 L44.2983944,40.5612457 L42.3140996,40.5090186 C42.3115169,40.5090186 42.3089342,40.508884 42.3063515,40.508884 C42.1927123,40.508884 42.0881126,40.5745717 42.0351671,40.679699 C41.9809302,40.7873839 41.9899697,40.9178171 42.0585406,41.0160795 L43.2257956,42.6896363 L42.5648806,44.6407507 C42.5260108,44.755435 42.5530001,44.8830415 42.6344846,44.9701316 C42.6931121,45.0327234 42.7725303,45.0665095 42.8538856,45.0665095 C42.8855238,45.0665095 42.9175494,45.0613945 42.948671,45.0508952 L44.8363726,44.4108436 L46.4123412,45.6688715 C46.4668363,45.7123493 46.5325662,45.7346939 46.5986836,45.7346939 C46.6449141,45.7346939 46.6912737,45.7237908 46.7344049,45.7017154 C46.8390046,45.647873 46.9052511,45.536823 46.9051219,45.4151392 L46.9044762,43.3461099 L48.5393306,42.1726145 C48.6351491,42.1035616 48.6852536,41.9836277 48.668466,41.8632899 L48.668466,41.8632899 Z" id="Shape"></path>
                    <path d="M47.0231237,65.9979957 C47.1051686,65.9534737 47.155973,65.8643229 47.1540269,65.7678052 C47.1520807,65.6713943 47.0977938,65.5844857 47.0139052,65.5435938 L45.587593,64.8485382 L45.3283473,63.2298382 C45.3130855,63.1347085 45.2474291,63.056875 45.1588287,63.0290088 C45.1356799,63.0217486 45.112019,63.0182253 45.0886654,63.0182253 C45.0223944,63.0182253 44.9576598,63.0465186 44.911055,63.0986211 L43.8361738,64.2978321 L42.2790609,64.0546161 C42.2669744,64.0526943 42.2549903,64.0518401 42.2430062,64.0518401 C42.1641365,64.0518401 42.0892615,64.0918779 42.0434762,64.1606361 C41.9906232,64.2398575 41.9856042,64.3434218 42.0303653,64.4278748 L42.7923284,65.8641094 L42.0892615,67.3325878 C42.047983,67.4188558 42.0572015,67.5220998 42.1131273,67.5989723 C42.1596297,67.6628192 42.2315343,67.6991201 42.3067165,67.6991201 C42.3220808,67.6991201 42.3375474,67.6976254 42.3529116,67.6945291 L43.8987575,67.3829819 L45.0213701,68.5337206 C45.0675652,68.5811253 45.1291245,68.6064292 45.191913,68.6064292 C45.2187492,68.6064292 45.2456878,68.6018382 45.271807,68.5923359 C45.3591782,68.560626 45.4216594,68.4799099 45.4330289,68.3842463 L45.6265157,66.7555101 L47.0231237,65.9979957 L47.0231237,65.9979957 Z" id="Shape"></path>
                    <path d="M73.1796092,17.2918777 L73.3459889,19.0007928 L72.0897792,20.1124313 C72.015916,20.1778021 71.9840766,20.2810544 72.0076614,20.3790547 C72.0311389,20.4769432 72.1059669,20.5524828 72.2006275,20.5738261 L73.8112517,20.9369971 L74.4373197,22.5258981 C74.4740905,22.6193169 74.5585668,22.682788 74.6551571,22.6897162 C74.6610533,22.6901632 74.6668423,22.6903866 74.6726312,22.6903866 C74.7626821,22.6903866 74.8467296,22.6405484 74.8925055,22.5586394 L75.7216167,21.0742198 L77.3648308,20.9445957 C77.4614211,20.9369971 77.5454685,20.8728555 77.5815961,20.7792133 C77.6177236,20.685571 77.5998207,20.5786311 77.5352842,20.5034268 L76.4370924,19.22283 L76.8265624,17.5538078 C76.8495039,17.4556958 76.8169141,17.3525552 76.7426221,17.2877432 C76.6959886,17.247068 76.6378844,17.2258365 76.5792441,17.2258365 C76.5445102,17.2258365 76.5095619,17.2332117 76.4766504,17.248409 L74.9688343,17.9413392 L73.5662919,17.039446 C73.5253402,17.0130742 73.4790283,17 73.4327165,17 C73.3858686,17 73.3389135,17.0135211 73.2976401,17.0404517 C73.2156295,17.0939775 73.1698537,17.1914191 73.1796092,17.2918777 L73.1796092,17.2918777 Z" id="Shape"></path>
                    <path d="M95.1796092,0.291877736 L95.3459889,2.00079282 L94.0897792,3.1124313 C94.015916,3.17780208 93.9840766,3.28105439 94.0076614,3.37905469 C94.0311389,3.47694324 94.1059669,3.55248281 94.2006275,3.57382609 L95.8112517,3.93699708 L96.4373197,5.52589812 C96.4740905,5.61931688 96.5585668,5.68278799 96.6551571,5.68971618 C96.6610533,5.69016316 96.6668423,5.69038665 96.6726312,5.69038665 C96.7626821,5.69038665 96.8467296,5.64054841 96.8925055,5.55863939 L97.7216167,4.07421985 L99.3648308,3.94459574 C99.4614211,3.93699708 99.5454685,3.8728555 99.5815961,3.77921325 C99.6177236,3.68557101 99.5998207,3.57863112 99.5352842,3.50342679 L98.4370924,2.22282998 L98.8265624,0.553807832 C98.8495039,0.455695791 98.8169141,0.352555228 98.7426221,0.287743173 C98.6959886,0.247068022 98.6378844,0.225836487 98.5792441,0.225836487 C98.5445102,0.225836487 98.5095619,0.233211652 98.4766504,0.248408961 L96.9688343,0.941339221 L95.5662919,0.0394459574 C95.5253402,0.0130741558 95.4790283,0 95.4327165,0 C95.3858686,0 95.3389135,0.0135211355 95.2976401,0.0404516617 C95.2156295,0.0939774792 95.1698537,0.191419051 95.1796092,0.291877736 L95.1796092,0.291877736 Z" id="Shape"></path>
                </g>
            </g>
        </g>
    </g>
</svg>