<svg id="Layer_1" data-name="Layer 1" xmlns="http://www.w3.org/2000/svg" viewBox="0 0 584.84 481.31"><defs><style>.cls-1{fill:#fff;}.cls-1,.cls-2,.cls-3{stroke:#000;stroke-miterlimit:10;}.cls-1,.cls-2{stroke-width:3px;}.cls-2,.cls-3{fill:none;}.cls-3{stroke-width:2px;}.cls-4{font-size:24px;font-family:Open Sans;font-weight:700;}</style></defs><title>itcss-key-metrics</title><polygon class="cls-1" points="295.75 478.31 45.75 45.3 545.75 45.3 295.75 478.31"/><line class="cls-2" x1="80.97" y1="106.3" x2="510.53" y2="106.3"/><line class="cls-3" x1="61.97" y1="13.8" x2="238.03" y2="13.8"/><polygon points="65.93 19.61 44.25 13.8 65.93 7.99 65.93 19.61"/><line class="cls-3" x1="8.86" y1="60.64" x2="86.57" y2="195.24"/><polygon points="5.81 66.98 0 45.3 15.87 61.17 5.81 66.98"/><line class="cls-3" x1="235.43" y1="462.97" x2="168.16" y2="346.45"/><polygon points="238.48 456.63 244.29 478.31 228.41 462.44 238.48 456.63"/><line class="cls-3" x1="344.7" y1="462.97" x2="408.28" y2="352.84"/><polygon points="351.71 462.44 335.84 478.31 341.65 456.63 351.71 462.44"/><line class="cls-3" x1="575.98" y1="61.64" x2="505.65" y2="183.46"/><polygon points="568.97 62.17 584.84 46.3 579.03 67.98 568.97 62.17"/><line class="cls-3" x1="528.03" y1="13.8" x2="356.25" y2="13.8"/><polygon points="524.07 7.99 545.75 13.8 524.07 19.61 524.07 7.99"/><line class="cls-2" x1="116.61" y1="168.8" x2="474.45" y2="168.8"/><line class="cls-2" x1="153.14" y1="231.3" x2="438.36" y2="231.3"/><line class="cls-2" x1="189.23" y1="293.81" x2="402.28" y2="293.81"/><line class="cls-2" x1="225.31" y1="356.31" x2="366.19" y2="356.31"/><line class="cls-2" x1="260.59" y1="418.81" x2="330.11" y2="418.81"/><text class="cls-4" transform="translate(255.35 20.57)">REACH</text><text class="cls-4" transform="translate(425.34 344.31) rotate(-61.27)">EXPLICITNESS</text><text class="cls-4" transform="translate(86.57 214.3) rotate(60.6)">SPECIFICITY</text></svg>